<?xml version="1.0" standalone="no"?>
<!DOCTYPE svg PUBLIC "-//W3C//DTD SVG 20010904//EN"
 "http://www.w3.org/TR/2001/REC-SVG-20010904/DTD/svg10.dtd">
<svg version="1.0" xmlns="http://www.w3.org/2000/svg"
 width="900.000000pt" height="900.000000pt" viewBox="0 0 900.000000 900.000000"
 preserveAspectRatio="xMidYMid meet">
<metadata>
Created by potrace 1.10, written by Peter Selinger 2001-2011
</metadata>
<g transform="translate(0.000000,900.000000) scale(0.100000,-0.100000)"
fill="#000000" stroke="none">
<path d="M0 4500 l0 -4500 4500 0 4500 0 0 4500 0 4500 -4500 0 -4500 0 0
-4500z m3817 1246 c10 -4 13 -53 13 -226 0 -121 4 -220 8 -220 5 0 34 14 66
31 51 28 65 31 119 27 44 -3 81 -14 128 -37 57 -28 71 -40 95 -84 l29 -52 0
-225 0 -225 -105 0 -105 0 -3 180 c-3 236 -17 269 -113 269 -43 0 -54 -5 -82
-32 l-32 -32 -5 -193 -5 -192 -105 0 -105 0 -3 500 c-2 412 0 502 11 510 14
10 169 10 194 1z m2083 -506 l0 -510 -105 0 c-85 0 -105 3 -105 14 0 25 -21
29 -48 9 -45 -33 -129 -56 -183 -50 -115 14 -221 99 -260 208 -23 62 -22 186
2 254 21 59 122 156 187 179 72 25 160 19 230 -17 30 -15 58 -25 63 -21 5 3 9
103 9 225 l0 219 105 0 105 0 0 -510z m-2986 474 c14 -5 16 -43 16 -323 1
-275 3 -322 18 -365 26 -73 56 -91 148 -90 67 1 77 4 102 27 47 45 52 89 52
425 0 226 3 311 12 320 18 18 192 16 208 -3 9 -11 11 -104 8 -382 l-3 -368
-33 -65 c-65 -128 -174 -185 -352 -185 -169 0 -287 62 -348 182 -33 65 -42
167 -42 495 0 231 3 317 12 326 13 13 173 17 202 6z m3308 -19 c67 -46 73
-138 12 -196 -21 -20 -35 -24 -86 -24 -57 1 -63 3 -89 35 -38 45 -46 88 -24
134 35 73 120 97 187 51z m-1423 -368 l54 -28 22 21 c18 17 34 20 101 20 43 0
85 -4 92 -8 11 -7 16 -275 12 -589 0 -10 -27 -13 -101 -13 -93 0 -101 2 -106
20 -6 22 -34 20 -63 -5 -8 -7 -39 -21 -68 -30 -133 -44 -288 33 -354 175 -17
36 -21 64 -21 145 0 92 2 104 29 154 35 65 105 130 165 153 67 26 169 20 238
-15z m1450 -1 c8 -9 11 -97 9 -302 l-3 -289 -105 0 -105 0 -3 289 c-2 205 1
293 9 302 8 10 37 14 99 14 62 0 91 -4 99 -14z m1386 -976 l0 -35 -3145 0
-3145 0 -3 23 c-2 13 -1 30 2 38 5 12 432 14 3148 12 l3143 -3 0 -35z m-3775
-214 c65 -15 74 -36 40 -91 -18 -29 -28 -35 -56 -35 -41 0 -54 -24 -54 -98 0
-69 6 -73 86 -70 l69 3 3 70 c2 38 8 75 14 82 11 13 76 17 116 7 20 -6 22 -12
22 -74 0 -47 4 -71 15 -80 9 -7 57 -12 132 -13 l118 -2 45 -92 c60 -122 65
-126 86 -74 9 22 25 58 35 78 11 21 19 42 19 47 0 5 7 18 17 28 31 35 133 15
133 -26 0 -7 8 -28 19 -49 10 -20 26 -56 35 -78 21 -52 26 -48 86 74 l45 92
73 3 c94 4 100 -10 43 -103 -17 -29 -118 -218 -149 -280 -20 -39 -29 -45 -76
-45 -40 0 -76 22 -76 46 0 7 -6 25 -14 41 -8 15 -23 45 -33 66 -10 21 -21 41
-25 43 -7 5 -78 -133 -78 -151 0 -23 -36 -45 -74 -45 -49 0 -58 6 -78 45 -12
26 -67 128 -140 265 -10 19 -27 46 -37 60 -21 26 -25 22 -33 -25 -2 -13 -14
-21 -37 -26 -44 -9 -51 -22 -51 -95 0 -68 12 -91 55 -102 26 -7 31 -15 39 -56
11 -64 2 -71 -88 -71 -60 0 -78 4 -96 20 -43 39 -55 75 -60 190 l-5 110 -66 3
c-46 2 -69 -1 -77 -11 -7 -8 -13 -69 -14 -158 l-3 -144 -70 0 -70 0 -3 147 -3
148 -29 15 c-17 9 -31 19 -31 23 -11 58 -4 78 32 96 22 10 25 20 31 100 11
122 41 170 122 193 22 6 41 11 41 12 0 0 25 -6 55 -13z m-1052 -27 c72 -13
152 -44 152 -60 0 -14 -48 -106 -58 -113 -5 -3 -33 3 -63 14 -69 25 -110 25
-137 0 -44 -41 -21 -73 89 -125 143 -67 211 -155 190 -245 -19 -78 -44 -113
-106 -151 -36 -22 -50 -24 -155 -23 -120 1 -166 13 -230 63 l-25 20 28 54 c15
30 35 58 44 61 9 4 35 -5 60 -20 64 -37 148 -44 186 -14 15 12 27 29 27 39 0
25 -45 62 -125 101 -127 62 -181 144 -156 238 15 59 31 84 76 118 29 22 91 46
134 53 2 1 34 -4 69 -10z m570 -270 c155 -52 213 -208 127 -340 -13 -20 -45
-49 -72 -65 -44 -27 -55 -29 -148 -29 -85 0 -105 3 -135 22 -104 65 -142 162
-108 275 22 75 147 155 244 157 16 1 58 -8 92 -20z m1972 1 c38 -15 56 -17 70
-10 28 15 125 13 139 -4 8 -9 11 -74 9 -212 l-3 -199 -69 -3 c-55 -2 -71 0
-80 14 -12 16 -14 16 -39 0 -34 -23 -122 -31 -174 -17 -85 23 -143 111 -143
216 0 104 49 179 142 216 57 23 87 23 148 -1z m638 9 c42 -15 46 -35 18 -88
-23 -43 -26 -46 -63 -44 -114 7 -126 -10 -133 -177 l-5 -125 -73 -3 -72 -3 2
213 3 213 67 3 c60 3 68 1 78 -18 11 -20 13 -20 29 -6 20 18 80 45 102 46 9 0
30 -5 47 -11z m380 -9 c77 -26 124 -79 141 -156 18 -81 13 -84 -161 -84 -127
0 -138 -1 -138 -18 0 -11 9 -27 21 -38 29 -26 119 -26 148 0 20 18 21 18 67 0
55 -23 62 -35 37 -69 -41 -58 -176 -91 -269 -66 -50 13 -118 71 -144 122 -58
113 5 259 133 308 66 25 94 26 165 1z"/>
<path d="M5494 5164 c-63 -31 -79 -58 -79 -134 0 -54 4 -73 20 -90 67 -74 183
-63 235 22 42 69 15 157 -60 196 -52 26 -74 27 -116 6z"/>
<path d="M4667 5159 c-50 -26 -77 -72 -77 -129 0 -116 118 -178 216 -114 92
59 83 192 -16 242 -54 27 -74 27 -123 1z"/>
<path d="M3224 3697 c-24 -21 -29 -33 -29 -70 0 -63 32 -97 92 -97 60 0 93 32
93 92 -1 60 -25 89 -81 95 -38 4 -50 1 -75 -20z"/>
<path d="M5251 3694 c-41 -34 -43 -88 -5 -133 22 -26 33 -31 70 -31 76 0 120
68 88 136 -28 59 -101 72 -153 28z"/>
<path d="M6238 3739 c-10 -5 -18 -18 -18 -29 0 -15 9 -19 54 -22 89 -5 104 4
66 42 -22 22 -73 26 -102 9z"/>
</g>
</svg>
